<svg width="466" height="132" viewBox="0 0 466 132" fill="none" xmlns="http://www.w3.org/2000/svg">
<g clip-path="url(#clip0_4808_14233)">
<path d="M107.041 29.501L60.8692 1.68434C57.8257 -0.152266 54.0423 -0.152266 51.004 1.68434L4.8266 29.501C1.97725 31.2221 0.203613 34.3601 0.203613 37.687V93.8398C0.203613 97.1719 1.97725 100.305 4.8266 102.026L51.004 129.842C52.5258 130.761 54.2312 131.217 55.9366 131.217C57.642 131.217 59.3474 130.761 60.8692 129.842L107.041 102.026C109.896 100.305 111.664 97.1719 111.664 93.8398V37.687C111.664 34.3601 109.896 31.2221 107.041 29.501ZM56.9808 106.297L48.0392 97.5707V80.0495L56.9808 88.3562V106.297ZM106.155 93.8398C106.155 95.2513 105.404 96.5789 104.197 97.3031L82.3627 110.458L68.2838 97.3818V104.901L77.4511 113.418L73.3476 115.889L68.2838 111.471V118.943L62.4906 122.433V88.2617L72.8071 77.4835H65.1773L59.6255 83.2872L47.3151 71.853L45.5047 73.7264H45.4995L42.5294 76.7961V99.8901L56.9808 114V125.566C55.9366 125.849 54.8032 125.702 53.8481 125.125L34.1388 113.25L40.4357 107.053L36.5683 103.122L29.2639 110.311L23.6754 106.948L36.1118 94.7056V73.973L42.776 67.314L38.6988 63.5988L30.602 71.6903V92.3967L18.8005 104.009L7.67071 97.3031C6.4638 96.5789 5.71342 95.2513 5.71342 93.8398V37.687C5.71342 36.2807 6.4638 34.9478 7.67071 34.2237L53.8481 6.40178C54.4883 6.01347 55.2125 5.81931 55.9366 5.81931C56.6607 5.81931 57.3796 6.01347 58.0251 6.40178L104.197 34.2237C105.404 34.9478 106.155 36.2807 106.155 37.687V93.8398Z" fill="white"/>
<path d="M46.6749 63.4155L52.4681 57.6224L48.5692 53.7288L42.5977 59.7003L46.6749 63.4155Z" fill="white"/>
<path d="M57.5631 42.7302H48.7632V48.24H57.5631V42.7302Z" fill="white"/>
<path d="M41.9205 41.5862L19.4038 64.1082V78.0821L24.9136 83.1983V66.3908L41.9205 49.3786V41.5862Z" fill="white"/>
<path d="M69.8962 55.24C71.5909 53.5452 71.5909 50.7975 69.8962 49.1028C68.2014 47.4081 65.4537 47.4081 63.759 49.1028C62.0643 50.7975 62.0643 53.5452 63.759 55.24C65.4537 56.9347 68.2014 56.9347 69.8962 55.24Z" fill="white"/>
<path d="M94.2742 50.8585H84.7816L69.9261 36.701H74.7537L83.8633 45.3802H91.8551L76.9577 31.1912H34.2698L23.0508 41.7595V50.4073L36.862 36.701H61.9343L81.292 55.1457V56.8354L72.3714 65.9554H61.6614L57.6891 62.3242L51.9484 68.6054L59.5782 75.5792L63.3406 71.4652H89.1212L95.14 75.4742L95.9639 76.0252L99.4482 78.3551H100.65V59.9943L94.2742 50.8585ZM90.7899 65.9554H80.0746L86.8018 59.0865V56.3683H91.3986L95.14 61.726V68.852L90.7899 65.9554Z" fill="white"/>
<path d="M11.2178 98.4263L21.8963 87.921L17.8558 84.1638L11.2178 90.6969V98.4263Z" fill="white"/>
</g>
<mask id="path-8-outside-1_4808_14233" maskUnits="userSpaceOnUse" x="130.764" y="39.6528" width="335" height="53" fill="black">
<rect fill="white" x="130.764" y="39.6528" width="335" height="53"/>
<path d="M137.72 75.0441C137.916 83.0007 143.525 86.718 151.612 86.718C159.307 86.718 164.459 83.1311 164.459 76.805C164.459 70.0876 158.655 68.7833 156.372 68.2615L147.633 66.2398C143.459 65.2615 134.72 63.305 134.72 54.1093C134.72 46.1528 141.242 41.4572 150.764 41.4572C160.612 41.4572 167.264 46.3485 167.459 55.0876H163.155C162.764 48.5007 158.133 45.0441 150.829 45.0441C143.459 45.0441 139.155 48.5659 139.155 53.7833C139.155 59.7833 144.959 61.2833 148.285 62.0007L157.612 64.0876C165.764 65.9137 168.959 70.5441 168.959 76.4789C168.959 85.3485 161.851 90.305 151.416 90.305C138.829 90.305 133.285 83.1311 133.351 75.0441H137.72ZM206.912 42.1093H211.151V56.718L195.695 74.9789V89.6528H191.456V74.9789L175.999 56.718V42.1093H180.238V55.5441L193.282 71.1963H193.869L206.912 55.5441V42.1093ZM220.915 89.6528V42.1093H226.524L253.98 84.8267H254.241L253.85 70.1528V42.1093H258.089V89.6528H252.415L225.089 46.805H224.828L225.154 60.9572V89.6528H220.915ZM270.483 89.6528V42.1093H274.722V63.305H304.07V42.1093H308.309V89.6528H304.07V67.218H274.722V89.6528H270.483ZM340.188 42.1093L355.514 60.4354V89.6528H351.275V77.7833H324.535V89.6528H320.296V60.4354L335.622 42.1093H340.188ZM324.535 73.805H351.275V61.6093L338.166 45.6963H337.644L324.535 61.6093V73.805ZM367.517 72.0441V42.1093H371.756V71.4572L379.582 86.1311H380.234L388.908 70.805V56.2615H392.886V70.805L402.147 86.1311H402.799L410.756 71.4572V42.1093H414.995V72.0441L405.278 89.6528H399.995L390.93 74.7833L382.386 89.6528H377.104L367.517 72.0441ZM456.896 89.6528L441.113 66.1746L431.004 78.305V89.6528H426.765V42.1093H431.004V72.6311L456.309 42.1093H461.2L443.852 62.8485L461.852 89.6528H456.896Z"/>
</mask>
<path d="M137.72 75.0441C137.916 83.0007 143.525 86.718 151.612 86.718C159.307 86.718 164.459 83.1311 164.459 76.805C164.459 70.0876 158.655 68.7833 156.372 68.2615L147.633 66.2398C143.459 65.2615 134.72 63.305 134.72 54.1093C134.72 46.1528 141.242 41.4572 150.764 41.4572C160.612 41.4572 167.264 46.3485 167.459 55.0876H163.155C162.764 48.5007 158.133 45.0441 150.829 45.0441C143.459 45.0441 139.155 48.5659 139.155 53.7833C139.155 59.7833 144.959 61.2833 148.285 62.0007L157.612 64.0876C165.764 65.9137 168.959 70.5441 168.959 76.4789C168.959 85.3485 161.851 90.305 151.416 90.305C138.829 90.305 133.285 83.1311 133.351 75.0441H137.72ZM206.912 42.1093H211.151V56.718L195.695 74.9789V89.6528H191.456V74.9789L175.999 56.718V42.1093H180.238V55.5441L193.282 71.1963H193.869L206.912 55.5441V42.1093ZM220.915 89.6528V42.1093H226.524L253.98 84.8267H254.241L253.85 70.1528V42.1093H258.089V89.6528H252.415L225.089 46.805H224.828L225.154 60.9572V89.6528H220.915ZM270.483 89.6528V42.1093H274.722V63.305H304.07V42.1093H308.309V89.6528H304.07V67.218H274.722V89.6528H270.483ZM340.188 42.1093L355.514 60.4354V89.6528H351.275V77.7833H324.535V89.6528H320.296V60.4354L335.622 42.1093H340.188ZM324.535 73.805H351.275V61.6093L338.166 45.6963H337.644L324.535 61.6093V73.805ZM367.517 72.0441V42.1093H371.756V71.4572L379.582 86.1311H380.234L388.908 70.805V56.2615H392.886V70.805L402.147 86.1311H402.799L410.756 71.4572V42.1093H414.995V72.0441L405.278 89.6528H399.995L390.93 74.7833L382.386 89.6528H377.104L367.517 72.0441ZM456.896 89.6528L441.113 66.1746L431.004 78.305V89.6528H426.765V42.1093H431.004V72.6311L456.309 42.1093H461.2L443.852 62.8485L461.852 89.6528H456.896Z" fill="white"/>
<path d="M137.72 75.0441L139.459 75.0014L139.417 73.305H137.72V75.0441ZM156.372 68.2615L155.98 69.9559L155.985 69.9569L156.372 68.2615ZM147.633 66.2398L147.236 67.933L147.241 67.9342L147.633 66.2398ZM167.459 55.0876V56.8267H169.238L169.198 55.0487L167.459 55.0876ZM163.155 55.0876L161.419 55.1907L161.516 56.8267H163.155V55.0876ZM148.285 62.0007L148.665 60.3034L148.652 60.3006L148.285 62.0007ZM157.612 64.0876L157.992 62.3905L157.991 62.3905L157.612 64.0876ZM133.351 75.0441V73.305H131.625L131.612 75.0301L133.351 75.0441ZM137.72 75.0441L135.982 75.0869C136.09 79.5035 137.727 82.9397 140.629 85.2299C143.475 87.4763 147.33 88.4572 151.612 88.4572V86.718V84.9789C147.806 84.9789 144.813 84.1011 142.784 82.4997C140.811 80.9421 139.546 78.5413 139.459 75.0014L137.72 75.0441ZM151.612 86.718V88.4572C155.703 88.4572 159.322 87.5069 161.965 85.5251C164.666 83.4994 166.198 80.4989 166.198 76.805H164.459H162.72C162.72 79.4372 161.677 81.3932 159.878 82.7425C158.02 84.1357 155.216 84.9789 151.612 84.9789V86.718ZM164.459 76.805H166.198C166.198 72.8374 164.436 70.3212 162.278 68.7911C160.225 67.3361 157.882 66.8225 156.76 66.5661L156.372 68.2615L155.985 69.9569C157.146 70.2223 158.846 70.6217 160.266 71.6287C161.58 72.5605 162.72 74.0552 162.72 76.805H164.459ZM156.372 68.2615L156.764 66.5671L148.025 64.5454L147.633 66.2398L147.241 67.9342L155.98 69.9559L156.372 68.2615ZM147.633 66.2398L148.03 64.5465C145.9 64.0472 142.971 63.3673 140.56 61.7983C138.259 60.3015 136.459 58.0216 136.459 54.1093H134.72H132.981C132.981 59.3927 135.551 62.6889 138.663 64.7139C141.665 66.6667 145.193 67.4541 147.236 67.933L147.633 66.2398ZM134.72 54.1093H136.459C136.459 50.6608 137.847 48.0113 140.231 46.1783C142.665 44.3075 146.266 43.1963 150.764 43.1963V41.4572V39.718C145.74 39.718 141.319 40.9547 138.111 43.4208C134.854 45.9248 132.981 49.6014 132.981 54.1093H134.72ZM150.764 41.4572V43.1963C155.42 43.1963 159.125 44.3541 161.65 46.3577C164.132 48.3262 165.633 51.232 165.721 55.1265L167.459 55.0876L169.198 55.0487C169.09 50.2041 167.167 46.2946 163.812 43.6327C160.501 41.0059 155.955 39.718 150.764 39.718V41.4572ZM167.459 55.0876V53.3485H163.155V55.0876V56.8267H167.459V55.0876ZM163.155 55.0876L164.891 54.9845C164.671 51.275 163.23 48.275 160.668 46.2352C158.146 44.2276 154.734 43.305 150.829 43.305V45.0441V46.7833C154.228 46.7833 156.784 47.5889 158.501 48.9563C160.178 50.2915 161.248 52.3133 161.419 55.1907L163.155 55.0876ZM150.829 45.0441V43.305C146.889 43.305 143.559 44.2443 141.17 46.0774C138.734 47.9463 137.416 50.6456 137.416 53.7833H139.155H140.894C140.894 51.7035 141.728 50.0333 143.287 48.8369C144.893 47.6048 147.399 46.7833 150.829 46.7833V45.0441ZM139.155 53.7833H137.416C137.416 57.4794 139.262 59.8587 141.524 61.3307C143.686 62.7374 146.256 63.342 147.919 63.7007L148.285 62.0007L148.652 60.3006C146.989 59.942 144.993 59.4379 143.421 58.4152C141.95 57.4578 140.894 56.0871 140.894 53.7833H139.155ZM148.285 62.0007L147.906 63.6978L157.232 65.7848L157.612 64.0876L157.991 62.3905L148.665 60.3035L148.285 62.0007ZM157.612 64.0876L157.231 65.7847C161.056 66.6414 163.514 68.1092 165.02 69.8722C166.515 71.6215 167.22 73.8337 167.22 76.4789H168.959H170.698C170.698 73.1894 169.806 70.119 167.665 67.6128C165.535 65.1204 162.319 63.3599 157.992 62.3905L157.612 64.0876ZM168.959 76.4789H167.22C167.22 80.3936 165.679 83.3293 163.047 85.3347C160.358 87.3831 156.384 88.5659 151.416 88.5659V90.305V92.0441C156.883 92.0441 161.68 90.7487 165.155 88.1014C168.686 85.4112 170.698 81.4338 170.698 76.4789H168.959ZM151.416 90.305V88.5659C145.452 88.5659 141.389 86.872 138.837 84.4465C136.286 82.0224 135.06 78.6956 135.09 75.0582L133.351 75.0441L131.612 75.0301C131.576 79.4796 133.089 83.7832 136.441 86.9679C139.79 90.151 144.793 92.0441 151.416 92.0441V90.305ZM133.351 75.0441V76.7833H137.72V75.0441V73.305H133.351V75.0441ZM206.912 42.1093V40.3702H205.173V42.1093H206.912ZM211.151 42.1093H212.891V40.3702H211.151V42.1093ZM211.151 56.718L212.479 57.8416L212.891 57.3553V56.718H211.151ZM195.695 74.9789L194.367 73.8553L193.956 74.3417V74.9789H195.695ZM195.695 89.6528V91.392H197.434V89.6528H195.695ZM191.456 89.6528H189.717V91.392H191.456V89.6528ZM191.456 74.9789H193.195V74.3417L192.783 73.8553L191.456 74.9789ZM175.999 56.718H174.26V57.3553L174.672 57.8416L175.999 56.718ZM175.999 42.1093V40.3702H174.26V42.1093H175.999ZM180.238 42.1093H181.978V40.3702H180.238V42.1093ZM180.238 55.5441H178.499V56.1738L178.902 56.6575L180.238 55.5441ZM193.282 71.1963L191.946 72.3097L192.467 72.9354H193.282V71.1963ZM193.869 71.1963V72.9354H194.683L195.205 72.3097L193.869 71.1963ZM206.912 55.5441L208.248 56.6575L208.651 56.1738V55.5441H206.912ZM206.912 42.1093V43.8485H211.151V42.1093V40.3702H206.912V42.1093ZM211.151 42.1093H209.412V56.718H211.151H212.891V42.1093H211.151ZM211.151 56.718L209.824 55.5945L194.367 73.8553L195.695 74.9789L197.022 76.1025L212.479 57.8416L211.151 56.718ZM195.695 74.9789H193.956V89.6528H195.695H197.434V74.9789H195.695ZM195.695 89.6528V87.9137H191.456V89.6528V91.392H195.695V89.6528ZM191.456 89.6528H193.195V74.9789H191.456H189.717V89.6528H191.456ZM191.456 74.9789L192.783 73.8553L177.327 55.5945L175.999 56.718L174.672 57.8416L190.128 76.1025L191.456 74.9789ZM175.999 56.718H177.738V42.1093H175.999H174.26V56.718H175.999ZM175.999 42.1093V43.8485H180.238V42.1093V40.3702H175.999V42.1093ZM180.238 42.1093H178.499V55.5441H180.238H181.978V42.1093H180.238ZM180.238 55.5441L178.902 56.6575L191.946 72.3097L193.282 71.1963L194.618 70.0829L181.574 54.4308L180.238 55.5441ZM193.282 71.1963V72.9354H193.869V71.1963V69.4572H193.282V71.1963ZM193.869 71.1963L195.205 72.3097L208.248 56.6575L206.912 55.5441L205.576 54.4308L192.533 70.0829L193.869 71.1963ZM206.912 55.5441H208.651V42.1093H206.912H205.173V55.5441H206.912ZM220.915 89.6528H219.176V91.392H220.915V89.6528ZM220.915 42.1093V40.3702H219.176V42.1093H220.915ZM226.524 42.1093L227.987 41.169L227.473 40.3702H226.524V42.1093ZM253.98 84.8267L252.517 85.7671L253.031 86.5659H253.98V84.8267ZM254.241 84.8267V86.5659H256.027L255.98 84.7804L254.241 84.8267ZM253.85 70.1528H252.111V70.176L252.111 70.1992L253.85 70.1528ZM253.85 42.1093V40.3702H252.111V42.1093H253.85ZM258.089 42.1093H259.828V40.3702H258.089V42.1093ZM258.089 89.6528V91.392H259.828V89.6528H258.089ZM252.415 89.6528L250.949 90.588L251.462 91.392H252.415V89.6528ZM225.089 46.805L226.555 45.8699L226.043 45.0659H225.089V46.805ZM224.828 46.805V45.0659H223.049L223.09 46.8451L224.828 46.805ZM225.154 60.9572H226.893V60.9371L226.893 60.9171L225.154 60.9572ZM225.154 89.6528V91.392H226.893V89.6528H225.154ZM220.915 89.6528H222.654V42.1093H220.915H219.176V89.6528H220.915ZM220.915 42.1093V43.8485H226.524V42.1093V40.3702H220.915V42.1093ZM226.524 42.1093L225.061 43.0497L252.517 85.7671L253.98 84.8267L255.443 83.8864L227.987 41.169L226.524 42.1093ZM253.98 84.8267V86.5659H254.241V84.8267V83.0876H253.98V84.8267ZM254.241 84.8267L255.98 84.7804L255.588 70.1065L253.85 70.1528L252.111 70.1992L252.503 84.8731L254.241 84.8267ZM253.85 70.1528H255.589V42.1093H253.85H252.111V70.1528H253.85ZM253.85 42.1093V43.8485H258.089V42.1093V40.3702H253.85V42.1093ZM258.089 42.1093H256.35V89.6528H258.089H259.828V42.1093H258.089ZM258.089 89.6528V87.9137H252.415V89.6528V91.392H258.089V89.6528ZM252.415 89.6528L253.882 88.7177L226.555 45.8699L225.089 46.805L223.623 47.7401L250.949 90.588L252.415 89.6528ZM225.089 46.805V45.0659H224.828V46.805V48.5441H225.089V46.805ZM224.828 46.805L223.09 46.8451L223.416 60.9972L225.154 60.9572L226.893 60.9171L226.567 46.7649L224.828 46.805ZM225.154 60.9572H223.415V89.6528H225.154H226.893V60.9572H225.154ZM225.154 89.6528V87.9137H220.915V89.6528V91.392H225.154V89.6528ZM270.483 89.6528H268.744V91.392H270.483V89.6528ZM270.483 42.1093V40.3702H268.744V42.1093H270.483ZM274.722 42.1093H276.461V40.3702H274.722V42.1093ZM274.722 63.305H272.983V65.0441H274.722V63.305ZM304.07 63.305V65.0441H305.809V63.305H304.07ZM304.07 42.1093V40.3702H302.331V42.1093H304.07ZM308.309 42.1093H310.048V40.3702H308.309V42.1093ZM308.309 89.6528V91.392H310.048V89.6528H308.309ZM304.07 89.6528H302.331V91.392H304.07V89.6528ZM304.07 67.218H305.809V65.4789H304.07V67.218ZM274.722 67.218V65.4789H272.983V67.218H274.722ZM274.722 89.6528V91.392H276.461V89.6528H274.722ZM270.483 89.6528H272.222V42.1093H270.483H268.744V89.6528H270.483ZM270.483 42.1093V43.8485H274.722V42.1093V40.3702H270.483V42.1093ZM274.722 42.1093H272.983V63.305H274.722H276.461V42.1093H274.722ZM274.722 63.305V65.0441H304.07V63.305V61.5659H274.722V63.305ZM304.07 63.305H305.809V42.1093H304.07H302.331V63.305H304.07ZM304.07 42.1093V43.8485H308.309V42.1093V40.3702H304.07V42.1093ZM308.309 42.1093H306.57V89.6528H308.309H310.048V42.1093H308.309ZM308.309 89.6528V87.9137H304.07V89.6528V91.392H308.309V89.6528ZM304.07 89.6528H305.809V67.218H304.07H302.331V89.6528H304.07ZM304.07 67.218V65.4789H274.722V67.218V68.9572H304.07V67.218ZM274.722 67.218H272.983V89.6528H274.722H276.461V67.218H274.722ZM274.722 89.6528V87.9137H270.483V89.6528V91.392H274.722V89.6528ZM340.188 42.1093L341.522 40.9936L341 40.3702H340.188V42.1093ZM355.514 60.4354H357.253V59.8041L356.848 59.3197L355.514 60.4354ZM355.514 89.6528V91.392H357.253V89.6528H355.514ZM351.275 89.6528H349.535V91.392H351.275V89.6528ZM351.275 77.7833H353.014V76.0441H351.275V77.7833ZM324.535 77.7833V76.0441H322.796V77.7833H324.535ZM324.535 89.6528V91.392H326.275V89.6528H324.535ZM320.296 89.6528H318.557V91.392H320.296V89.6528ZM320.296 60.4354L318.962 59.3197L318.557 59.8041V60.4354H320.296ZM335.622 42.1093V40.3702H334.81L334.288 40.9936L335.622 42.1093ZM324.535 73.805H322.796V75.5441H324.535V73.805ZM351.275 73.805V75.5441H353.014V73.805H351.275ZM351.275 61.6094H353.014V60.9853L352.617 60.5036L351.275 61.6094ZM338.166 45.6963L339.508 44.5905L338.986 43.9572H338.166V45.6963ZM337.644 45.6963V43.9572H336.824L336.302 44.5905L337.644 45.6963ZM324.535 61.6094L323.193 60.5036L322.796 60.9853V61.6094H324.535ZM340.188 42.1093L338.854 43.225L354.18 61.5511L355.514 60.4354L356.848 59.3197L341.522 40.9936L340.188 42.1093ZM355.514 60.4354H353.775V89.6528H355.514H357.253V60.4354H355.514ZM355.514 89.6528V87.9137H351.275V89.6528V91.392H355.514V89.6528ZM351.275 89.6528H353.014V77.7833H351.275H349.535V89.6528H351.275ZM351.275 77.7833V76.0441H324.535V77.7833V79.5224H351.275V77.7833ZM324.535 77.7833H322.796V89.6528H324.535H326.275V77.7833H324.535ZM324.535 89.6528V87.9137H320.296V89.6528V91.392H324.535V89.6528ZM320.296 89.6528H322.035V60.4354H320.296H318.557V89.6528H320.296ZM320.296 60.4354L321.63 61.5511L336.956 43.225L335.622 42.1093L334.288 40.9936L318.962 59.3197L320.296 60.4354ZM335.622 42.1093V43.8485H340.188V42.1093V40.3702H335.622V42.1093ZM324.535 73.805V75.5441H351.275V73.805V72.0659H324.535V73.805ZM351.275 73.805H353.014V61.6094H351.275H349.535V73.805H351.275ZM351.275 61.6094L352.617 60.5036L339.508 44.5905L338.166 45.6963L336.824 46.8021L349.932 62.7151L351.275 61.6094ZM338.166 45.6963V43.9572H337.644V45.6963V47.4354H338.166V45.6963ZM337.644 45.6963L336.302 44.5905L323.193 60.5036L324.535 61.6094L325.878 62.7151L338.986 46.8021L337.644 45.6963ZM324.535 61.6094H322.796V73.805H324.535H326.275V61.6094H324.535ZM367.517 72.0441H365.778V72.4869L365.989 72.8757L367.517 72.0441ZM367.517 42.1093V40.3702H365.778V42.1093H367.517ZM371.756 42.1093H373.495V40.3702H371.756V42.1093ZM371.756 71.4572H370.017V71.892L370.221 72.2756L371.756 71.4572ZM379.582 86.1311L378.047 86.9495L378.539 87.8702H379.582V86.1311ZM380.234 86.1311V87.8702H381.248L381.748 86.9877L380.234 86.1311ZM388.908 70.805L390.422 71.6616L390.647 71.263V70.805H388.908ZM388.908 56.2615V54.5224H387.169V56.2615H388.908ZM392.886 56.2615H394.625V54.5224H392.886V56.2615ZM392.886 70.805H391.147V71.2896L391.398 71.7044L392.886 70.805ZM402.147 86.1311L400.659 87.0305L401.166 87.8702H402.147V86.1311ZM402.799 86.1311V87.8702H403.835L404.328 86.9601L402.799 86.1311ZM410.756 71.4572L412.285 72.2862L412.495 71.8983V71.4572H410.756ZM410.756 42.1093V40.3702H409.017V42.1093H410.756ZM414.995 42.1093H416.734V40.3702H414.995V42.1093ZM414.995 72.0441L416.518 72.8844L416.734 72.4922V72.0441H414.995ZM405.278 89.6528V91.392H406.304L406.8 90.4931L405.278 89.6528ZM399.995 89.6528L398.51 90.5581L399.018 91.392H399.995V89.6528ZM390.93 74.7833L392.415 73.878L390.885 71.3695L389.422 73.9169L390.93 74.7833ZM382.386 89.6528V91.392H383.393L383.894 90.5192L382.386 89.6528ZM377.104 89.6528L375.576 90.4844L376.07 91.392H377.104V89.6528ZM367.517 72.0441H369.256V42.1093H367.517H365.778V72.0441H367.517ZM367.517 42.1093V43.8485H371.756V42.1093V40.3702H367.517V42.1093ZM371.756 42.1093H370.017V71.4572H371.756H373.495V42.1093H371.756ZM371.756 71.4572L370.221 72.2756L378.047 86.9495L379.582 86.1311L381.117 85.3127L373.29 70.6388L371.756 71.4572ZM379.582 86.1311V87.8702H380.234V86.1311V84.392H379.582V86.1311ZM380.234 86.1311L381.748 86.9877L390.422 71.6616L388.908 70.805L387.395 69.9484L378.721 85.2745L380.234 86.1311ZM388.908 70.805H390.647V56.2615H388.908H387.169V70.805H388.908ZM388.908 56.2615V58.0007H392.886V56.2615V54.5224H388.908V56.2615ZM392.886 56.2615H391.147V70.805H392.886H394.625V56.2615H392.886ZM392.886 70.805L391.398 71.7044L400.659 87.0305L402.147 86.1311L403.636 85.2317L394.375 69.9056L392.886 70.805ZM402.147 86.1311V87.8702H402.799V86.1311V84.392H402.147V86.1311ZM402.799 86.1311L404.328 86.9601L412.285 72.2862L410.756 71.4572L409.227 70.6282L401.271 85.3021L402.799 86.1311ZM410.756 71.4572H412.495V42.1093H410.756H409.017V71.4572H410.756ZM410.756 42.1093V43.8485H414.995V42.1093V40.3702H410.756V42.1093ZM414.995 42.1093H413.256V72.0441H414.995H416.734V42.1093H414.995ZM414.995 72.0441L413.472 71.2038L403.755 88.8125L405.278 89.6528L406.8 90.4931L416.518 72.8844L414.995 72.0441ZM405.278 89.6528V87.9137H399.995V89.6528V91.392H405.278V89.6528ZM399.995 89.6528L401.48 88.7475L392.415 73.878L390.93 74.7833L389.445 75.6886L398.51 90.5581L399.995 89.6528ZM390.93 74.7833L389.422 73.9169L380.878 88.7864L382.386 89.6528L383.894 90.5192L392.438 75.6497L390.93 74.7833ZM382.386 89.6528V87.9137H377.104V89.6528V91.392H382.386V89.6528ZM377.104 89.6528L378.631 88.8212L369.044 71.2125L367.517 72.0441L365.989 72.8757L375.576 90.4844L377.104 89.6528ZM456.896 89.6528L455.452 90.6231L455.969 91.392H456.896V89.6528ZM441.113 66.1746L442.556 65.2043L441.262 63.279L439.777 65.0612L441.113 66.1746ZM431.004 78.305L429.668 77.1916L429.265 77.6754V78.305H431.004ZM431.004 89.6528V91.392H432.743V89.6528H431.004ZM426.765 89.6528H425.026V91.392H426.765V89.6528ZM426.765 42.1093V40.3702H425.026V42.1093H426.765ZM431.004 42.1093H432.743V40.3702H431.004V42.1093ZM431.004 72.6311H429.265V77.4537L432.343 73.7411L431.004 72.6311ZM456.309 42.1093V40.3702H455.491L454.97 40.9994L456.309 42.1093ZM461.2 42.1093L462.534 43.2252L464.922 40.3702H461.2V42.1093ZM443.852 62.8485L442.518 61.7326L441.681 62.7341L442.408 63.818L443.852 62.8485ZM461.852 89.6528V91.392H465.115L463.296 88.6833L461.852 89.6528ZM456.896 89.6528L458.339 88.6826L442.556 65.2043L441.113 66.1746L439.67 67.1448L455.452 90.6231L456.896 89.6528ZM441.113 66.1746L439.777 65.0612L429.668 77.1916L431.004 78.305L432.34 79.4184L442.449 67.2879L441.113 66.1746ZM431.004 78.305H429.265V89.6528H431.004H432.743V78.305H431.004ZM431.004 89.6528V87.9137H426.765V89.6528V91.392H431.004V89.6528ZM426.765 89.6528H428.504V42.1093H426.765H425.026V89.6528H426.765ZM426.765 42.1093V43.8485H431.004V42.1093V40.3702H426.765V42.1093ZM431.004 42.1093H429.265V72.6311H431.004H432.743V42.1093H431.004ZM431.004 72.6311L432.343 73.7411L457.648 43.2193L456.309 42.1093L454.97 40.9994L429.665 71.5211L431.004 72.6311ZM456.309 42.1093V43.8485H461.2V42.1093V40.3702H456.309V42.1093ZM461.2 42.1093L459.866 40.9935L442.518 61.7326L443.852 62.8485L445.186 63.9643L462.534 43.2252L461.2 42.1093ZM443.852 62.8485L442.408 63.818L460.408 90.6224L461.852 89.6528L463.296 88.6833L445.296 61.8789L443.852 62.8485ZM461.852 89.6528V87.9137H456.896V89.6528V91.392H461.852V89.6528Z" fill="white" mask="url(#path-8-outside-1_4808_14233)"/>
<defs>
<clipPath id="clip0_4808_14233">
<rect width="111.461" height="130.91" fill="white" transform="translate(0.203613 0.306885)"/>
</clipPath>
</defs>
</svg>
